<?xml version="1.0" encoding="UTF-8" standalone="no"?><!DOCTYPE svg PUBLIC "-//W3C//DTD SVG 1.1//EN" "http://www.w3.org/Graphics/SVG/1.1/DTD/svg11.dtd"><!-- Generated by graphviz version 2.40.1 (20161225.0304)
 --><!-- Title: %0 Pages: 1 --><svg xmlns="http://www.w3.org/2000/svg" xmlns:xlink="http://www.w3.org/1999/xlink" width="2073pt" height="548pt" viewBox="0.00 0.00 2073.32 548.00">
<g id="graph0" class="graph" transform="scale(1 1) rotate(0) translate(4 544)">
<title>%0</title>
<polygon fill="#ffffff" stroke="transparent" points="-4,4 -4,-544 2069.3241,-544 2069.3241,4 -4,4"/>
<!-- [root] aws_eip.public_http (expand) -->
<g id="node1" class="node">
<title>[root] aws_eip.public_http (expand)</title>
<polygon fill="none" stroke="#000000" points="613.0966,-396 483.8004,-396 483.8004,-360 613.0966,-360 613.0966,-396"/>
<text text-anchor="middle" x="548.4485" y="-373.8" font-family="Times,serif" font-size="14.00" fill="#000000">aws_eip.public_http</text>
</g>
<!-- [root] aws_instance.http (expand) -->
<g id="node3" class="node">
<title>[root] aws_instance.http (expand)</title>
<polygon fill="none" stroke="#000000" points="597.3651,-324 481.5319,-324 481.5319,-288 597.3651,-288 597.3651,-324"/>
<text text-anchor="middle" x="539.4485" y="-301.8" font-family="Times,serif" font-size="14.00" fill="#000000">aws_instance.http</text>
</g>
<!-- [root] aws_eip.public_http (expand)&#45;&gt;[root] aws_instance.http (expand) -->
<g id="edge1" class="edge">
<title>[root] aws_eip.public_http (expand)-&gt;[root] aws_instance.http (expand)</title>
<path fill="none" stroke="#000000" d="M546.1774,-359.8314C545.2149,-352.131 544.0703,-342.9743 543.0006,-334.4166"/>
<polygon fill="#000000" stroke="#000000" points="546.4636,-333.9019 541.7502,-324.4133 539.5176,-334.7702 546.4636,-333.9019"/>
</g>
<!-- [root] aws_instance.db (expand) -->
<g id="node2" class="node">
<title>[root] aws_instance.db (expand)</title>
<polygon fill="none" stroke="#000000" points="723.584,-324 615.313,-324 615.313,-288 723.584,-288 723.584,-324"/>
<text text-anchor="middle" x="669.4485" y="-301.8" font-family="Times,serif" font-size="14.00" fill="#000000">aws_instance.db</text>
</g>
<!-- [root] aws_key_pair.user_key (expand) -->
<g id="node5" class="node">
<title>[root] aws_key_pair.user_key (expand)</title>
<polygon fill="none" stroke="#000000" points="431.2293,-252 283.6677,-252 283.6677,-216 431.2293,-216 431.2293,-252"/>
<text text-anchor="middle" x="357.4485" y="-229.8" font-family="Times,serif" font-size="14.00" fill="#000000">aws_key_pair.user_key</text>
</g>
<!-- [root] aws_instance.db (expand)&#45;&gt;[root] aws_key_pair.user_key (expand) -->
<g id="edge2" class="edge">
<title>[root] aws_instance.db (expand)-&gt;[root] aws_key_pair.user_key (expand)</title>
<path fill="none" stroke="#000000" d="M615.2124,-290.2629C612.2528,-289.4795 609.3171,-288.72 606.4485,-288 606.1868,-287.9343 513.5971,-267.8566 441.4135,-252.2052"/>
<polygon fill="#000000" stroke="#000000" points="441.8898,-248.7272 431.3752,-250.0286 440.4064,-255.5683 441.8898,-248.7272"/>
</g>
<!-- [root] aws_security_group.administration (expand) -->
<g id="node9" class="node">
<title>[root] aws_security_group.administration (expand)</title>
<polygon fill="none" stroke="#000000" points="266.0685,-252 52.8285,-252 52.8285,-216 266.0685,-216 266.0685,-252"/>
<text text-anchor="middle" x="159.4485" y="-229.8" font-family="Times,serif" font-size="14.00" fill="#000000">aws_security_group.administration</text>
</g>
<!-- [root] aws_instance.db (expand)&#45;&gt;[root] aws_security_group.administration (expand) -->
<g id="edge3" class="edge">
<title>[root] aws_instance.db (expand)-&gt;[root] aws_security_group.administration (expand)</title>
<path fill="none" stroke="#000000" d="M615.2947,-289.8941C612.3139,-289.2058 609.351,-288.5677 606.4485,-288 464.0598,-260.1496 423.3997,-270.9639 276.5366,-252.2301"/>
<polygon fill="#000000" stroke="#000000" points="276.6103,-248.7103 266.2424,-250.8912 275.7074,-255.6518 276.6103,-248.7103"/>
</g>
<!-- [root] aws_security_group.db (expand) -->
<g id="node10" class="node">
<title>[root] aws_security_group.db (expand)</title>
<polygon fill="none" stroke="#000000" points="595.6907,-252 449.2063,-252 449.2063,-216 595.6907,-216 595.6907,-252"/>
<text text-anchor="middle" x="522.4485" y="-229.8" font-family="Times,serif" font-size="14.00" fill="#000000">aws_security_group.db</text>
</g>
<!-- [root] aws_instance.db (expand)&#45;&gt;[root] aws_security_group.db (expand) -->
<g id="edge4" class="edge">
<title>[root] aws_instance.db (expand)-&gt;[root] aws_security_group.db (expand)</title>
<path fill="none" stroke="#000000" d="M632.3542,-287.8314C612.9559,-278.3302 589.0315,-266.6121 568.4623,-256.5374"/>
<polygon fill="#000000" stroke="#000000" points="569.7963,-253.2935 559.2761,-252.038 566.7171,-259.5799 569.7963,-253.2935"/>
</g>
<!-- [root] aws_subnet.db (expand) -->
<g id="node20" class="node">
<title>[root] aws_subnet.db (expand)</title>
<polygon fill="none" stroke="#000000" points="962.7643,-252 864.1327,-252 864.1327,-216 962.7643,-216 962.7643,-252"/>
<text text-anchor="middle" x="913.4485" y="-229.8" font-family="Times,serif" font-size="14.00" fill="#000000">aws_subnet.db</text>
</g>
<!-- [root] aws_instance.db (expand)&#45;&gt;[root] aws_subnet.db (expand) -->
<g id="edge5" class="edge">
<title>[root] aws_instance.db (expand)-&gt;[root] aws_subnet.db (expand)</title>
<path fill="none" stroke="#000000" d="M723.736,-290.3414C758.3973,-280.3005 804.5311,-266.857 854.2348,-252.0478"/>
<polygon fill="#000000" stroke="#000000" points="855.3052,-255.3809 863.8872,-249.168 853.3039,-248.6731 855.3052,-255.3809"/>
</g>
<!-- [root] var.ami -->
<g id="node24" class="node">
<title>[root] var.ami</title>
<polygon fill="none" stroke="#000000" points="839.8207,-252 787.0763,-252 787.0763,-216 845.8207,-216 845.8207,-246 839.8207,-252"/>
<polyline fill="none" stroke="#000000" points="839.8207,-252 839.8207,-246 "/>
<polyline fill="none" stroke="#000000" points="845.8207,-246 839.8207,-246 "/>
<text text-anchor="middle" x="816.4485" y="-229.8" font-family="Times,serif" font-size="14.00" fill="#000000">var.ami</text>
</g>
<!-- [root] aws_instance.db (expand)&#45;&gt;[root] var.ami -->
<g id="edge6" class="edge">
<title>[root] aws_instance.db (expand)-&gt;[root] var.ami</title>
<path fill="none" stroke="#000000" d="M706.5428,-287.8314C728.4229,-277.1146 756.0615,-263.5773 778.1483,-252.7593"/>
<polygon fill="#000000" stroke="#000000" points="779.8002,-255.8475 787.2413,-248.3056 776.7211,-249.5611 779.8002,-255.8475"/>
</g>
<!-- [root] var.http_instance_names -->
<g id="node26" class="node">
<title>[root] var.http_instance_names</title>
<polygon fill="none" stroke="#000000" points="762.739,-252 614.158,-252 614.158,-216 768.739,-216 768.739,-246 762.739,-252"/>
<polyline fill="none" stroke="#000000" points="762.739,-252 762.739,-246 "/>
<polyline fill="none" stroke="#000000" points="768.739,-246 762.739,-246 "/>
<text text-anchor="middle" x="691.4485" y="-229.8" font-family="Times,serif" font-size="14.00" fill="#000000">var.http_instance_names</text>
</g>
<!-- [root] aws_instance.db (expand)&#45;&gt;[root] var.http_instance_names -->
<g id="edge7" class="edge">
<title>[root] aws_instance.db (expand)-&gt;[root] var.http_instance_names</title>
<path fill="none" stroke="#000000" d="M675,-287.8314C677.3788,-280.0463 680.2123,-270.7729 682.8518,-262.1347"/>
<polygon fill="#000000" stroke="#000000" points="686.2472,-262.9996 685.8222,-252.4133 679.5527,-260.954 686.2472,-262.9996"/>
</g>
<!-- [root] aws_instance.http (expand)&#45;&gt;[root] aws_key_pair.user_key (expand) -->
<g id="edge8" class="edge">
<title>[root] aws_instance.http (expand)-&gt;[root] aws_key_pair.user_key (expand)</title>
<path fill="none" stroke="#000000" d="M493.5222,-287.8314C468.8562,-278.0734 438.2794,-265.977 412.3625,-255.7242"/>
<polygon fill="#000000" stroke="#000000" points="413.6309,-252.4621 403.0445,-252.038 411.0558,-258.9713 413.6309,-252.4621"/>
</g>
<!-- [root] aws_instance.http (expand)&#45;&gt;[root] aws_security_group.administration (expand) -->
<g id="edge9" class="edge">
<title>[root] aws_instance.http (expand)-&gt;[root] aws_security_group.administration (expand)</title>
<path fill="none" stroke="#000000" d="M481.4238,-290.0625C478.3945,-289.3398 475.3892,-288.6473 472.4485,-288 435.6727,-279.9054 349.0497,-265.0781 276.2338,-253.0059"/>
<polygon fill="#000000" stroke="#000000" points="276.4947,-249.5015 266.0574,-251.3217 275.3517,-256.4076 276.4947,-249.5015"/>
</g>
<!-- [root] aws_instance.http (expand)&#45;&gt;[root] aws_security_group.db (expand) -->
<g id="edge10" class="edge">
<title>[root] aws_instance.http (expand)-&gt;[root] aws_security_group.db (expand)</title>
<path fill="none" stroke="#000000" d="M535.1587,-287.8314C533.3405,-280.131 531.1786,-270.9743 529.158,-262.4166"/>
<polygon fill="#000000" stroke="#000000" points="532.5004,-261.3414 526.7961,-252.4133 525.6877,-262.95 532.5004,-261.3414"/>
</g>
<!-- [root] aws_instance.http (expand)&#45;&gt;[root] aws_subnet.db (expand) -->
<g id="edge11" class="edge">
<title>[root] aws_instance.http (expand)-&gt;[root] aws_subnet.db (expand)</title>
<path fill="none" stroke="#000000" d="M597.4528,-289.9665C600.4874,-289.2689 603.4994,-288.608 606.4485,-288 712.4428,-266.1487 743.9835,-275.735 854.1802,-251.8513"/>
<polygon fill="#000000" stroke="#000000" points="855.011,-255.2523 864.0197,-249.6761 853.4999,-248.4173 855.011,-255.2523"/>
</g>
<!-- [root] aws_instance.http (expand)&#45;&gt;[root] var.ami -->
<g id="edge12" class="edge">
<title>[root] aws_instance.http (expand)-&gt;[root] var.ami</title>
<path fill="none" stroke="#000000" d="M597.5034,-290.1939C600.5248,-289.4368 603.5201,-288.701 606.4485,-288 681.9802,-269.9177 703.7241,-276.4276 777.4485,-252 777.5458,-251.9678 777.6432,-251.9353 777.7407,-251.9027"/>
<polygon fill="#000000" stroke="#000000" points="778.7807,-255.2508 786.9168,-248.4644 776.3244,-248.6958 778.7807,-255.2508"/>
</g>
<!-- [root] aws_instance.http (expand)&#45;&gt;[root] var.http_instance_names -->
<g id="edge13" class="edge">
<title>[root] aws_instance.http (expand)-&gt;[root] var.http_instance_names</title>
<path fill="none" stroke="#000000" d="M577.8045,-287.8314C597.9529,-278.2874 622.8237,-266.5065 644.1568,-256.4013"/>
<polygon fill="#000000" stroke="#000000" points="645.8292,-259.482 653.3683,-252.038 642.8326,-253.1558 645.8292,-259.482"/>
</g>
<!-- [root] aws_internet_gateway.gw (expand) -->
<g id="node4" class="node">
<title>[root] aws_internet_gateway.gw (expand)</title>
<polygon fill="none" stroke="#000000" points="1135.2237,-180 973.6733,-180 973.6733,-144 1135.2237,-144 1135.2237,-180"/>
<text text-anchor="middle" x="1054.4485" y="-157.8" font-family="Times,serif" font-size="14.00" fill="#000000">aws_internet_gateway.gw</text>
</g>
<!-- [root] aws_vpc.terraform (expand) -->
<g id="node22" class="node">
<title>[root] aws_vpc.terraform (expand)</title>
<polygon fill="none" stroke="#000000" points="678.2822,-108 556.6148,-108 556.6148,-72 678.2822,-72 678.2822,-108"/>
<text text-anchor="middle" x="617.4485" y="-85.8" font-family="Times,serif" font-size="14.00" fill="#000000">aws_vpc.terraform</text>
</g>
<!-- [root] aws_internet_gateway.gw (expand)&#45;&gt;[root] aws_vpc.terraform (expand) -->
<g id="edge14" class="edge">
<title>[root] aws_internet_gateway.gw (expand)-&gt;[root] aws_vpc.terraform (expand)</title>
<path fill="none" stroke="#000000" d="M973.5265,-145.6449C970.4635,-145.0801 967.4293,-144.5298 964.4485,-144 869.1877,-127.0698 758.6866,-110.3786 688.4471,-100.1361"/>
<polygon fill="#000000" stroke="#000000" points="688.7823,-96.6481 678.3826,-98.6724 687.7748,-103.5752 688.7823,-96.6481"/>
</g>
<!-- [root] provider[&quot;registry.terraform.io/hashicorp/aws&quot;] -->
<g id="node23" class="node">
<title>[root] provider["registry.terraform.io/hashicorp/aws"]</title>
<polygon fill="none" stroke="#000000" points="405.4485,-36 130.458,-18 405.4485,0 680.439,-18 405.4485,-36"/>
<text text-anchor="middle" x="405.4485" y="-13.8" font-family="Times,serif" font-size="14.00" fill="#000000">provider["registry.terraform.io/hashicorp/aws"]</text>
</g>
<!-- [root] aws_key_pair.user_key (expand)&#45;&gt;[root] provider[&quot;registry.terraform.io/hashicorp/aws&quot;] -->
<g id="edge15" class="edge">
<title>[root] aws_key_pair.user_key (expand)-&gt;[root] provider["registry.terraform.io/hashicorp/aws"]</title>
<path fill="none" stroke="#000000" d="M369.4695,-215.7744C375.5609,-205.6499 382.4886,-192.5871 386.4485,-180 400.6495,-134.8594 404.4066,-79.622 405.3036,-46.7044"/>
<polygon fill="#000000" stroke="#000000" points="408.808,-46.5116 405.509,-36.4435 401.8094,-46.3714 408.808,-46.5116"/>
</g>
<!-- [root] var.public_key -->
<g id="node29" class="node">
<title>[root] var.public_key</title>
<polygon fill="none" stroke="#000000" points="371.035,-180 277.862,-180 277.862,-144 377.035,-144 377.035,-174 371.035,-180"/>
<polyline fill="none" stroke="#000000" points="371.035,-180 371.035,-174 "/>
<polyline fill="none" stroke="#000000" points="377.035,-174 371.035,-174 "/>
<text text-anchor="middle" x="327.4485" y="-157.8" font-family="Times,serif" font-size="14.00" fill="#000000">var.public_key</text>
</g>
<!-- [root] aws_key_pair.user_key (expand)&#45;&gt;[root] var.public_key -->
<g id="edge16" class="edge">
<title>[root] aws_key_pair.user_key (expand)-&gt;[root] var.public_key</title>
<path fill="none" stroke="#000000" d="M349.8782,-215.8314C346.5992,-207.9617 342.6865,-198.5712 339.054,-189.8533"/>
<polygon fill="#000000" stroke="#000000" points="342.1977,-188.2979 335.1207,-180.4133 335.7361,-190.9902 342.1977,-188.2979"/>
</g>
<!-- [root] aws_route_table.public (expand) -->
<g id="node6" class="node">
<title>[root] aws_route_table.public (expand)</title>
<polygon fill="none" stroke="#000000" points="1127.6865,-252 981.2105,-252 981.2105,-216 1127.6865,-216 1127.6865,-252"/>
<text text-anchor="middle" x="1054.4485" y="-229.8" font-family="Times,serif" font-size="14.00" fill="#000000">aws_route_table.public</text>
</g>
<!-- [root] aws_route_table.public (expand)&#45;&gt;[root] aws_internet_gateway.gw (expand) -->
<g id="edge17" class="edge">
<title>[root] aws_route_table.public (expand)-&gt;[root] aws_internet_gateway.gw (expand)</title>
<path fill="none" stroke="#000000" d="M1054.4485,-215.8314C1054.4485,-208.131 1054.4485,-198.9743 1054.4485,-190.4166"/>
<polygon fill="#000000" stroke="#000000" points="1057.9486,-190.4132 1054.4485,-180.4133 1050.9486,-190.4133 1057.9486,-190.4132"/>
</g>
<!-- [root] aws_route_table_association.db (expand) -->
<g id="node7" class="node">
<title>[root] aws_route_table_association.db (expand)</title>
<polygon fill="none" stroke="#000000" points="935.8958,-324 741.0012,-324 741.0012,-288 935.8958,-288 935.8958,-324"/>
<text text-anchor="middle" x="838.4485" y="-301.8" font-family="Times,serif" font-size="14.00" fill="#000000">aws_route_table_association.db</text>
</g>
<!-- [root] aws_route_table_association.db (expand)&#45;&gt;[root] aws_route_table.public (expand) -->
<g id="edge18" class="edge">
<title>[root] aws_route_table_association.db (expand)-&gt;[root] aws_route_table.public (expand)</title>
<path fill="none" stroke="#000000" d="M892.6756,-287.9243C922.3325,-278.0387 959.2522,-265.7321 990.3306,-255.3726"/>
<polygon fill="#000000" stroke="#000000" points="991.8191,-258.5659 1000.1991,-252.0831 989.6054,-251.9251 991.8191,-258.5659"/>
</g>
<!-- [root] aws_route_table_association.db (expand)&#45;&gt;[root] aws_subnet.db (expand) -->
<g id="edge19" class="edge">
<title>[root] aws_route_table_association.db (expand)-&gt;[root] aws_subnet.db (expand)</title>
<path fill="none" stroke="#000000" d="M857.3742,-287.8314C866.4342,-279.1337 877.4294,-268.5783 887.275,-259.1265"/>
<polygon fill="#000000" stroke="#000000" points="889.7389,-261.613 894.5289,-252.1628 884.8911,-256.5633 889.7389,-261.613"/>
</g>
<!-- [root] aws_route_table_association.http (expand) -->
<g id="node8" class="node">
<title>[root] aws_route_table_association.http (expand)</title>
<polygon fill="none" stroke="#000000" points="1155.6766,-324 953.2204,-324 953.2204,-288 1155.6766,-288 1155.6766,-324"/>
<text text-anchor="middle" x="1054.4485" y="-301.8" font-family="Times,serif" font-size="14.00" fill="#000000">aws_route_table_association.http</text>
</g>
<!-- [root] aws_route_table_association.http (expand)&#45;&gt;[root] aws_route_table.public (expand) -->
<g id="edge20" class="edge">
<title>[root] aws_route_table_association.http (expand)-&gt;[root] aws_route_table.public (expand)</title>
<path fill="none" stroke="#000000" d="M1054.4485,-287.8314C1054.4485,-280.131 1054.4485,-270.9743 1054.4485,-262.4166"/>
<polygon fill="#000000" stroke="#000000" points="1057.9486,-262.4132 1054.4485,-252.4133 1050.9486,-262.4133 1057.9486,-262.4132"/>
</g>
<!-- [root] aws_route_table_association.http (expand)&#45;&gt;[root] aws_subnet.db (expand) -->
<g id="edge21" class="edge">
<title>[root] aws_route_table_association.http (expand)-&gt;[root] aws_subnet.db (expand)</title>
<path fill="none" stroke="#000000" d="M1018.8682,-287.8314C1000.416,-278.4089 977.694,-266.8062 958.0755,-256.7883"/>
<polygon fill="#000000" stroke="#000000" points="959.5152,-253.5935 949.0174,-252.1628 956.3317,-259.8278 959.5152,-253.5935"/>
</g>
<!-- [root] aws_security_group.administration (expand)&#45;&gt;[root] aws_vpc.terraform (expand) -->
<g id="edge22" class="edge">
<title>[root] aws_security_group.administration (expand)-&gt;[root] aws_vpc.terraform (expand)</title>
<path fill="none" stroke="#000000" d="M175.5485,-215.7655C195.2278,-194.7648 230.6108,-160.9817 268.4485,-144 316.8736,-122.2666 459.4423,-105.2298 546.6556,-96.4784"/>
<polygon fill="#000000" stroke="#000000" points="547.1395,-99.9477 556.7453,-95.4781 546.4488,-92.9818 547.1395,-99.9477"/>
</g>
<!-- [root] aws_security_group.db (expand)&#45;&gt;[root] aws_vpc.terraform (expand) -->
<g id="edge23" class="edge">
<title>[root] aws_security_group.db (expand)-&gt;[root] aws_vpc.terraform (expand)</title>
<path fill="none" stroke="#000000" d="M534.4803,-215.7623C551.0408,-190.66 580.9647,-145.3017 599.9876,-116.4671"/>
<polygon fill="#000000" stroke="#000000" points="602.929,-118.3642 605.5144,-108.0896 597.086,-114.5094 602.929,-118.3642"/>
</g>
<!-- [root] aws_security_group.web (expand) -->
<g id="node11" class="node">
<title>[root] aws_security_group.web (expand)</title>
<polygon fill="none" stroke="#000000" points="1532.0123,-324 1376.8847,-324 1376.8847,-288 1532.0123,-288 1532.0123,-324"/>
<text text-anchor="middle" x="1454.4485" y="-301.8" font-family="Times,serif" font-size="14.00" fill="#000000">aws_security_group.web</text>
</g>
<!-- [root] aws_security_group.web (expand)&#45;&gt;[root] aws_vpc.terraform (expand) -->
<g id="edge24" class="edge">
<title>[root] aws_security_group.web (expand)-&gt;[root] aws_vpc.terraform (expand)</title>
<path fill="none" stroke="#000000" d="M1428.1612,-287.792C1376.5075,-253.0613 1256.9836,-177.8062 1144.4485,-144 1060.9155,-118.9061 811.8799,-101.3543 688.4332,-93.9433"/>
<polygon fill="#000000" stroke="#000000" points="688.5164,-90.4422 678.3262,-93.3424 688.1009,-97.4298 688.5164,-90.4422"/>
</g>
<!-- [root] aws_security_group_rule.db_port (expand) -->
<g id="node12" class="node">
<title>[root] aws_security_group_rule.db_port (expand)</title>
<polygon fill="none" stroke="#000000" points="1379.508,-396 1175.389,-396 1175.389,-360 1379.508,-360 1379.508,-396"/>
<text text-anchor="middle" x="1277.4485" y="-373.8" font-family="Times,serif" font-size="14.00" fill="#000000">aws_security_group_rule.db_port</text>
</g>
<!-- [root] aws_security_group_rule.db_port (expand)&#45;&gt;[root] aws_security_group.web (expand) -->
<g id="edge25" class="edge">
<title>[root] aws_security_group_rule.db_port (expand)-&gt;[root] aws_security_group.web (expand)</title>
<path fill="none" stroke="#000000" d="M1322.1131,-359.8314C1345.9962,-350.1162 1375.5775,-338.0831 1400.7113,-327.8592"/>
<polygon fill="#000000" stroke="#000000" points="1402.161,-331.0481 1410.1051,-324.038 1399.5233,-324.564 1402.161,-331.0481"/>
</g>
<!-- [root] aws_security_group_rule.http (expand) -->
<g id="node13" class="node">
<title>[root] aws_security_group_rule.http (expand)</title>
<polygon fill="none" stroke="#000000" points="1580.7376,-396 1398.1594,-396 1398.1594,-360 1580.7376,-360 1580.7376,-396"/>
<text text-anchor="middle" x="1489.4485" y="-373.8" font-family="Times,serif" font-size="14.00" fill="#000000">aws_security_group_rule.http</text>
</g>
<!-- [root] aws_security_group_rule.http (expand)&#45;&gt;[root] aws_security_group.web (expand) -->
<g id="edge26" class="edge">
<title>[root] aws_security_group_rule.http (expand)-&gt;[root] aws_security_group.web (expand)</title>
<path fill="none" stroke="#000000" d="M1480.6165,-359.8314C1476.7499,-351.8771 1472.1279,-342.369 1467.8517,-333.5723"/>
<polygon fill="#000000" stroke="#000000" points="1470.9192,-331.8768 1463.3994,-324.4133 1464.6236,-334.9371 1470.9192,-331.8768"/>
</g>
<!-- [root] aws_security_group_rule.https (expand) -->
<g id="node14" class="node">
<title>[root] aws_security_group_rule.https (expand)</title>
<polygon fill="none" stroke="#000000" points="1787.6822,-396 1599.2148,-396 1599.2148,-360 1787.6822,-360 1787.6822,-396"/>
<text text-anchor="middle" x="1693.4485" y="-373.8" font-family="Times,serif" font-size="14.00" fill="#000000">aws_security_group_rule.https</text>
</g>
<!-- [root] aws_security_group_rule.https (expand)&#45;&gt;[root] aws_security_group.web (expand) -->
<g id="edge27" class="edge">
<title>[root] aws_security_group_rule.https (expand)-&gt;[root] aws_security_group.web (expand)</title>
<path fill="none" stroke="#000000" d="M1633.4472,-359.9243C1600.2063,-349.9103 1558.719,-337.412 1524.0573,-326.97"/>
<polygon fill="#000000" stroke="#000000" points="1525.059,-323.6165 1514.4745,-324.0831 1523.0398,-330.3189 1525.059,-323.6165"/>
</g>
<!-- [root] aws_security_group_rule.icmp (expand) -->
<g id="node15" class="node">
<title>[root] aws_security_group_rule.icmp (expand)</title>
<polygon fill="none" stroke="#000000" points="206.9521,-324 17.9449,-324 17.9449,-288 206.9521,-288 206.9521,-324"/>
<text text-anchor="middle" x="112.4485" y="-301.8" font-family="Times,serif" font-size="14.00" fill="#000000">aws_security_group_rule.icmp</text>
</g>
<!-- [root] aws_security_group_rule.icmp (expand)&#45;&gt;[root] aws_security_group.administration (expand) -->
<g id="edge28" class="edge">
<title>[root] aws_security_group_rule.icmp (expand)-&gt;[root] aws_security_group.administration (expand)</title>
<path fill="none" stroke="#000000" d="M124.3086,-287.8314C129.6114,-279.7079 135.9722,-269.9637 141.8158,-261.0118"/>
<polygon fill="#000000" stroke="#000000" points="144.8933,-262.7003 147.4287,-252.4133 139.0316,-258.8739 144.8933,-262.7003"/>
</g>
<!-- [root] aws_security_group_rule.public_access (expand) -->
<g id="node16" class="node">
<title>[root] aws_security_group_rule.public_access (expand)</title>
<polygon fill="none" stroke="#000000" points="463.6998,-324 225.1972,-324 225.1972,-288 463.6998,-288 463.6998,-324"/>
<text text-anchor="middle" x="344.4485" y="-301.8" font-family="Times,serif" font-size="14.00" fill="#000000">aws_security_group_rule.public_access</text>
</g>
<!-- [root] aws_security_group_rule.public_access (expand)&#45;&gt;[root] aws_security_group.administration (expand) -->
<g id="edge29" class="edge">
<title>[root] aws_security_group_rule.public_access (expand)-&gt;[root] aws_security_group.administration (expand)</title>
<path fill="none" stroke="#000000" d="M297.7652,-287.8314C272.6926,-278.0734 241.6118,-265.977 215.2676,-255.7242"/>
<polygon fill="#000000" stroke="#000000" points="216.3847,-252.4033 205.7961,-252.038 213.8458,-258.9266 216.3847,-252.4033"/>
</g>
<!-- [root] aws_security_group_rule.public_access_db (expand) -->
<g id="node17" class="node">
<title>[root] aws_security_group_rule.public_access_db (expand)</title>
<polygon fill="none" stroke="#000000" points="2065.1998,-396 1805.6972,-396 1805.6972,-360 2065.1998,-360 2065.1998,-396"/>
<text text-anchor="middle" x="1935.4485" y="-373.8" font-family="Times,serif" font-size="14.00" fill="#000000">aws_security_group_rule.public_access_db</text>
</g>
<!-- [root] aws_security_group_rule.public_access_db (expand)&#45;&gt;[root] aws_security_group.web (expand) -->
<g id="edge30" class="edge">
<title>[root] aws_security_group_rule.public_access_db (expand)-&gt;[root] aws_security_group.web (expand)</title>
<path fill="none" stroke="#000000" d="M1815.0028,-359.9707C1730.1814,-347.274 1618.5638,-330.5661 1542.119,-319.1232"/>
<polygon fill="#000000" stroke="#000000" points="1542.4487,-315.6337 1532.0407,-317.6146 1541.4124,-322.5565 1542.4487,-315.6337"/>
</g>
<!-- [root] aws_security_group_rule.public_access_web (expand) -->
<g id="node18" class="node">
<title>[root] aws_security_group_rule.public_access_web (expand)</title>
<polygon fill="none" stroke="#000000" points="1157.0209,-396 887.8761,-396 887.8761,-360 1157.0209,-360 1157.0209,-396"/>
<text text-anchor="middle" x="1022.4485" y="-373.8" font-family="Times,serif" font-size="14.00" fill="#000000">aws_security_group_rule.public_access_web</text>
</g>
<!-- [root] aws_security_group_rule.public_access_web (expand)&#45;&gt;[root] aws_security_group.web (expand) -->
<g id="edge31" class="edge">
<title>[root] aws_security_group_rule.public_access_web (expand)-&gt;[root] aws_security_group.web (expand)</title>
<path fill="none" stroke="#000000" d="M1130.6242,-359.9707C1203.6353,-347.8022 1298.752,-331.9494 1366.9797,-320.5781"/>
<polygon fill="#000000" stroke="#000000" points="1367.5566,-324.0303 1376.8451,-318.9339 1366.4058,-317.1256 1367.5566,-324.0303"/>
</g>
<!-- [root] aws_security_group_rule.ssh (expand) -->
<g id="node19" class="node">
<title>[root] aws_security_group_rule.ssh (expand)</title>
<polygon fill="none" stroke="#000000" points="178.8455,-396 .0515,-396 .0515,-360 178.8455,-360 178.8455,-396"/>
<text text-anchor="middle" x="89.4485" y="-373.8" font-family="Times,serif" font-size="14.00" fill="#000000">aws_security_group_rule.ssh</text>
</g>
<!-- [root] aws_security_group_rule.ssh (expand)&#45;&gt;[root] aws_security_group.administration (expand) -->
<g id="edge32" class="edge">
<title>[root] aws_security_group_rule.ssh (expand)-&gt;[root] aws_security_group.administration (expand)</title>
<path fill="none" stroke="#000000" d="M46.4631,-359.8854C31.6656,-351.3151 16.7424,-339.4972 8.4485,-324 .8988,-309.8932 -.7655,-301.0806 8.4485,-288 17.0927,-275.7283 45.2451,-264.2139 74.9379,-254.9961"/>
<polygon fill="#000000" stroke="#000000" points="76.0423,-258.3189 84.6098,-252.086 74.0254,-251.6158 76.0423,-258.3189"/>
</g>
<!-- [root] aws_subnet.db (expand)&#45;&gt;[root] aws_internet_gateway.gw (expand) -->
<g id="edge33" class="edge">
<title>[root] aws_subnet.db (expand)-&gt;[root] aws_internet_gateway.gw (expand)</title>
<path fill="none" stroke="#000000" d="M949.0288,-215.8314C967.481,-206.4089 990.203,-194.8062 1009.8215,-184.7883"/>
<polygon fill="#000000" stroke="#000000" points="1011.5653,-187.8278 1018.8796,-180.1628 1008.3818,-181.5935 1011.5653,-187.8278"/>
</g>
<!-- [root] var.network_db -->
<g id="node27" class="node">
<title>[root] var.network_db</title>
<polygon fill="none" stroke="#000000" points="949.6964,-180 851.2006,-180 851.2006,-144 955.6964,-144 955.6964,-174 949.6964,-180"/>
<polyline fill="none" stroke="#000000" points="949.6964,-180 949.6964,-174 "/>
<polyline fill="none" stroke="#000000" points="955.6964,-174 949.6964,-174 "/>
<text text-anchor="middle" x="903.4485" y="-157.8" font-family="Times,serif" font-size="14.00" fill="#000000">var.network_db</text>
</g>
<!-- [root] aws_subnet.db (expand)&#45;&gt;[root] var.network_db -->
<g id="edge34" class="edge">
<title>[root] aws_subnet.db (expand)-&gt;[root] var.network_db</title>
<path fill="none" stroke="#000000" d="M910.9251,-215.8314C909.8556,-208.131 908.5838,-198.9743 907.3953,-190.4166"/>
<polygon fill="#000000" stroke="#000000" points="910.8484,-189.8367 906.0059,-180.4133 903.9149,-190.7997 910.8484,-189.8367"/>
</g>
<!-- [root] aws_subnet.http (expand) -->
<g id="node21" class="node">
<title>[root] aws_subnet.http (expand)</title>
<polygon fill="none" stroke="#000000" points="869.5461,-396 763.3509,-396 763.3509,-360 869.5461,-360 869.5461,-396"/>
<text text-anchor="middle" x="816.4485" y="-373.8" font-family="Times,serif" font-size="14.00" fill="#000000">aws_subnet.http</text>
</g>
<!-- [root] aws_subnet.http (expand)&#45;&gt;[root] aws_internet_gateway.gw (expand) -->
<g id="edge35" class="edge">
<title>[root] aws_subnet.http (expand)-&gt;[root] aws_internet_gateway.gw (expand)</title>
<path fill="none" stroke="#000000" d="M869.7227,-361.8135C872.6614,-361.146 875.5838,-360.5344 878.4485,-360 924.0566,-351.4914 1263.0884,-358.1912 1294.4485,-324 1352.4782,-260.7316 1226.2797,-209.7824 1135.8255,-182.8718"/>
<polygon fill="#000000" stroke="#000000" points="1136.6712,-179.4726 1126.0908,-180.0265 1134.7073,-186.1915 1136.6712,-179.4726"/>
</g>
<!-- [root] var.network_http -->
<g id="node28" class="node">
<title>[root] var.network_http</title>
<polygon fill="none" stroke="#000000" points="1279.4773,-324 1173.4197,-324 1173.4197,-288 1285.4773,-288 1285.4773,-318 1279.4773,-324"/>
<polyline fill="none" stroke="#000000" points="1279.4773,-324 1279.4773,-318 "/>
<polyline fill="none" stroke="#000000" points="1285.4773,-318 1279.4773,-318 "/>
<text text-anchor="middle" x="1229.4485" y="-301.8" font-family="Times,serif" font-size="14.00" fill="#000000">var.network_http</text>
</g>
<!-- [root] aws_subnet.http (expand)&#45;&gt;[root] var.network_http -->
<g id="edge36" class="edge">
<title>[root] aws_subnet.http (expand)-&gt;[root] var.network_http</title>
<path fill="none" stroke="#000000" d="M869.7491,-361.9481C872.681,-361.2459 875.5947,-360.59 878.4485,-360 1000.7235,-334.7186 1036.9978,-348.4211 1163.1525,-324.0943"/>
<polygon fill="#000000" stroke="#000000" points="1164.064,-327.482 1173.1984,-322.1142 1162.7103,-320.6142 1164.064,-327.482"/>
</g>
<!-- [root] aws_vpc.terraform (expand)&#45;&gt;[root] provider[&quot;registry.terraform.io/hashicorp/aws&quot;] -->
<g id="edge37" class="edge">
<title>[root] aws_vpc.terraform (expand)-&gt;[root] provider["registry.terraform.io/hashicorp/aws"]</title>
<path fill="none" stroke="#000000" d="M564.2256,-71.9243C532.3242,-61.0899 491.8604,-47.3474 459.766,-36.4475"/>
<polygon fill="#000000" stroke="#000000" points="460.6875,-33.0641 450.0931,-33.1623 458.4364,-39.6923 460.6875,-33.0641"/>
</g>
<!-- [root] var.vpc_cidr -->
<g id="node31" class="node">
<title>[root] var.vpc_cidr</title>
<polygon fill="none" stroke="#000000" points="778.8048,-36 698.0922,-36 698.0922,0 784.8048,0 784.8048,-30 778.8048,-36"/>
<polyline fill="none" stroke="#000000" points="778.8048,-36 778.8048,-30 "/>
<polyline fill="none" stroke="#000000" points="784.8048,-30 778.8048,-30 "/>
<text text-anchor="middle" x="741.4485" y="-13.8" font-family="Times,serif" font-size="14.00" fill="#000000">var.vpc_cidr</text>
</g>
<!-- [root] aws_vpc.terraform (expand)&#45;&gt;[root] var.vpc_cidr -->
<g id="edge38" class="edge">
<title>[root] aws_vpc.terraform (expand)-&gt;[root] var.vpc_cidr</title>
<path fill="none" stroke="#000000" d="M648.7389,-71.8314C664.7462,-62.5368 684.4071,-51.1208 701.4979,-41.1971"/>
<polygon fill="#000000" stroke="#000000" points="703.2777,-44.211 710.1681,-36.1628 699.7627,-38.1575 703.2777,-44.211"/>
</g>
<!-- [root] var.db_instance_names -->
<g id="node25" class="node">
<title>[root] var.db_instance_names</title>
<polygon fill="none" stroke="#000000" points="1141.9577,-468 1000.9393,-468 1000.9393,-432 1147.9577,-432 1147.9577,-462 1141.9577,-468"/>
<polyline fill="none" stroke="#000000" points="1141.9577,-468 1141.9577,-462 "/>
<polyline fill="none" stroke="#000000" points="1147.9577,-462 1141.9577,-462 "/>
<text text-anchor="middle" x="1074.4485" y="-445.8" font-family="Times,serif" font-size="14.00" fill="#000000">var.db_instance_names</text>
</g>
<!-- [root] var.tags -->
<g id="node30" class="node">
<title>[root] var.tags</title>
<polygon fill="none" stroke="#000000" points="1219.3735,-468 1165.5235,-468 1165.5235,-432 1225.3735,-432 1225.3735,-462 1219.3735,-468"/>
<polyline fill="none" stroke="#000000" points="1219.3735,-468 1219.3735,-462 "/>
<polyline fill="none" stroke="#000000" points="1225.3735,-462 1219.3735,-462 "/>
<text text-anchor="middle" x="1195.4485" y="-445.8" font-family="Times,serif" font-size="14.00" fill="#000000">var.tags</text>
</g>
<!-- [root] provider[&quot;registry.terraform.io/hashicorp/aws&quot;] (close) -->
<g id="node32" class="node">
<title>[root] provider["registry.terraform.io/hashicorp/aws"] (close)</title>
<ellipse fill="none" stroke="#000000" cx="735.4485" cy="-450" rx="247.2168" ry="18"/>
<text text-anchor="middle" x="735.4485" y="-445.8" font-family="Times,serif" font-size="14.00" fill="#000000">[root] provider["registry.terraform.io/hashicorp/aws"] (close)</text>
</g>
<!-- [root] provider[&quot;registry.terraform.io/hashicorp/aws&quot;] (close)&#45;&gt;[root] aws_eip.public_http (expand) -->
<g id="edge39" class="edge">
<title>[root] provider["registry.terraform.io/hashicorp/aws"] (close)-&gt;[root] aws_eip.public_http (expand)</title>
<path fill="none" stroke="#000000" d="M689.2238,-432.2022C663.7935,-422.4109 632.0316,-410.1817 605.1165,-399.8187"/>
<polygon fill="#000000" stroke="#000000" points="606.0301,-396.4201 595.4404,-396.0931 603.5149,-402.9526 606.0301,-396.4201"/>
</g>
<!-- [root] provider[&quot;registry.terraform.io/hashicorp/aws&quot;] (close)&#45;&gt;[root] aws_instance.db (expand) -->
<g id="edge40" class="edge">
<title>[root] provider["registry.terraform.io/hashicorp/aws"] (close)-&gt;[root] aws_instance.db (expand)</title>
<path fill="none" stroke="#000000" d="M712.3567,-431.8365C701.8536,-422.3064 690.2724,-409.7584 683.4485,-396 673.9336,-376.8159 670.5676,-352.7433 669.5077,-334.3226"/>
<polygon fill="#000000" stroke="#000000" points="673.0007,-334.0684 669.1211,-324.2095 666.0058,-334.3359 673.0007,-334.0684"/>
</g>
<!-- [root] provider[&quot;registry.terraform.io/hashicorp/aws&quot;] (close)&#45;&gt;[root] aws_route_table_association.db (expand) -->
<g id="edge41" class="edge">
<title>[root] provider["registry.terraform.io/hashicorp/aws"] (close)-&gt;[root] aws_route_table_association.db (expand)</title>
<path fill="none" stroke="#000000" d="M725.9084,-431.9475C717.1483,-412.6367 707.4717,-381.8444 721.4485,-360 730.1354,-346.4232 743.1996,-336.2113 757.4894,-328.5456"/>
<polygon fill="#000000" stroke="#000000" points="759.0958,-331.6559 766.5169,-324.0944 756.0001,-325.3776 759.0958,-331.6559"/>
</g>
<!-- [root] provider[&quot;registry.terraform.io/hashicorp/aws&quot;] (close)&#45;&gt;[root] aws_route_table_association.http (expand) -->
<g id="edge42" class="edge">
<title>[root] provider["registry.terraform.io/hashicorp/aws"] (close)-&gt;[root] aws_route_table_association.http (expand)</title>
<path fill="none" stroke="#000000" d="M733.8017,-431.6645C733.056,-411.2138 735.3104,-378.5731 754.4485,-360 757.9874,-356.5656 859.1641,-338.8148 943.0481,-324.5886"/>
<polygon fill="#000000" stroke="#000000" points="943.6482,-328.0369 952.9235,-322.9165 942.4795,-321.1352 943.6482,-328.0369"/>
</g>
<!-- [root] provider[&quot;registry.terraform.io/hashicorp/aws&quot;] (close)&#45;&gt;[root] aws_security_group_rule.db_port (expand) -->
<g id="edge43" class="edge">
<title>[root] provider["registry.terraform.io/hashicorp/aws"] (close)-&gt;[root] aws_security_group_rule.db_port (expand)</title>
<path fill="none" stroke="#000000" d="M867.1798,-434.7457C950.0155,-424.8544 1059.3833,-411.2511 1165.3411,-396.1347"/>
<polygon fill="#000000" stroke="#000000" points="1165.8512,-399.5974 1175.2538,-394.7146 1164.8585,-392.6682 1165.8512,-399.5974"/>
</g>
<!-- [root] provider[&quot;registry.terraform.io/hashicorp/aws&quot;] (close)&#45;&gt;[root] aws_security_group_rule.http (expand) -->
<g id="edge44" class="edge">
<title>[root] provider["registry.terraform.io/hashicorp/aws"] (close)-&gt;[root] aws_security_group_rule.http (expand)</title>
<path fill="none" stroke="#000000" d="M911.2373,-437.3327C1067.361,-425.7516 1284.9836,-408.7129 1388.196,-395.9346"/>
<polygon fill="#000000" stroke="#000000" points="1388.6412,-399.4062 1398.1197,-394.6725 1387.758,-392.4621 1388.6412,-399.4062"/>
</g>
<!-- [root] provider[&quot;registry.terraform.io/hashicorp/aws&quot;] (close)&#45;&gt;[root] aws_security_group_rule.https (expand) -->
<g id="edge45" class="edge">
<title>[root] provider["registry.terraform.io/hashicorp/aws"] (close)-&gt;[root] aws_security_group_rule.https (expand)</title>
<path fill="none" stroke="#000000" d="M912.0494,-437.3491C938.6541,-435.511 965.7731,-433.6754 991.4485,-432 1253.899,-414.8738 1323.2859,-426.4609 1589.1853,-395.9455"/>
<polygon fill="#000000" stroke="#000000" points="1589.6024,-399.4207 1599.134,-394.7948 1588.798,-392.4671 1589.6024,-399.4207"/>
</g>
<!-- [root] provider[&quot;registry.terraform.io/hashicorp/aws&quot;] (close)&#45;&gt;[root] aws_security_group_rule.icmp (expand) -->
<g id="edge46" class="edge">
<title>[root] provider["registry.terraform.io/hashicorp/aws"] (close)-&gt;[root] aws_security_group_rule.icmp (expand)</title>
<path fill="none" stroke="#000000" d="M617.3909,-434.1218C555.4046,-424.8453 478.4077,-411.8388 410.4485,-396 327.809,-376.7397 234.4428,-347.2505 174.5932,-327.3245"/>
<polygon fill="#000000" stroke="#000000" points="175.5108,-323.9409 164.917,-324.0889 173.2909,-330.5796 175.5108,-323.9409"/>
</g>
<!-- [root] provider[&quot;registry.terraform.io/hashicorp/aws&quot;] (close)&#45;&gt;[root] aws_security_group_rule.public_access (expand) -->
<g id="edge47" class="edge">
<title>[root] provider["registry.terraform.io/hashicorp/aws"] (close)-&gt;[root] aws_security_group_rule.public_access (expand)</title>
<path fill="none" stroke="#000000" d="M609.5317,-434.4601C565.6197,-426.3264 516.7687,-414.1317 474.4485,-396 436.3639,-379.683 397.997,-351.3205 372.92,-330.7888"/>
<polygon fill="#000000" stroke="#000000" points="374.8709,-327.859 364.9447,-324.1548 370.3944,-333.2406 374.8709,-327.859"/>
</g>
<!-- [root] provider[&quot;registry.terraform.io/hashicorp/aws&quot;] (close)&#45;&gt;[root] aws_security_group_rule.public_access_db (expand) -->
<g id="edge48" class="edge">
<title>[root] provider["registry.terraform.io/hashicorp/aws"] (close)-&gt;[root] aws_security_group_rule.public_access_db (expand)</title>
<path fill="none" stroke="#000000" d="M909.2651,-437.1785C936.7547,-435.3239 964.8713,-433.5284 991.4485,-432 1345.6761,-411.6294 1437.9542,-426.738 1795.5198,-396.0349"/>
<polygon fill="#000000" stroke="#000000" points="1795.9737,-399.5088 1805.635,-395.1603 1795.3706,-392.5349 1795.9737,-399.5088"/>
</g>
<!-- [root] provider[&quot;registry.terraform.io/hashicorp/aws&quot;] (close)&#45;&gt;[root] aws_security_group_rule.public_access_web (expand) -->
<g id="edge49" class="edge">
<title>[root] provider["registry.terraform.io/hashicorp/aws"] (close)-&gt;[root] aws_security_group_rule.public_access_web (expand)</title>
<path fill="none" stroke="#000000" d="M804.5574,-432.6626C845.5661,-422.3747 897.7783,-409.2762 940.8111,-398.4805"/>
<polygon fill="#000000" stroke="#000000" points="941.8427,-401.8302 950.6904,-396.002 940.1393,-395.0406 941.8427,-401.8302"/>
</g>
<!-- [root] provider[&quot;registry.terraform.io/hashicorp/aws&quot;] (close)&#45;&gt;[root] aws_security_group_rule.ssh (expand) -->
<g id="edge50" class="edge">
<title>[root] provider["registry.terraform.io/hashicorp/aws"] (close)-&gt;[root] aws_security_group_rule.ssh (expand)</title>
<path fill="none" stroke="#000000" d="M571.1633,-436.5168C463.983,-426.9949 321.1529,-412.938 195.4485,-396 193.3529,-395.7176 191.2352,-395.425 189.1015,-395.1236"/>
<polygon fill="#000000" stroke="#000000" points="189.4218,-391.6334 179.0215,-393.6543 188.4121,-398.5602 189.4218,-391.6334"/>
</g>
<!-- [root] provider[&quot;registry.terraform.io/hashicorp/aws&quot;] (close)&#45;&gt;[root] aws_subnet.http (expand) -->
<g id="edge51" class="edge">
<title>[root] provider["registry.terraform.io/hashicorp/aws"] (close)-&gt;[root] aws_subnet.http (expand)</title>
<path fill="none" stroke="#000000" d="M755.8882,-431.8314C765.769,-423.0485 777.7809,-412.3712 788.4935,-402.8489"/>
<polygon fill="#000000" stroke="#000000" points="790.8665,-405.4224 796.0153,-396.1628 786.2159,-400.1906 790.8665,-405.4224"/>
</g>
<!-- [root] root -->
<g id="node33" class="node">
<title>[root] root</title>
<ellipse fill="none" stroke="#000000" cx="1074.4485" cy="-522" rx="50.9823" ry="18"/>
<text text-anchor="middle" x="1074.4485" y="-517.8" font-family="Times,serif" font-size="14.00" fill="#000000">[root] root</text>
</g>
<!-- [root] root&#45;&gt;[root] var.db_instance_names -->
<g id="edge53" class="edge">
<title>[root] root-&gt;[root] var.db_instance_names</title>
<path fill="none" stroke="#000000" d="M1074.4485,-503.8314C1074.4485,-496.131 1074.4485,-486.9743 1074.4485,-478.4166"/>
<polygon fill="#000000" stroke="#000000" points="1077.9486,-478.4132 1074.4485,-468.4133 1070.9486,-478.4133 1077.9486,-478.4132"/>
</g>
<!-- [root] root&#45;&gt;[root] var.tags -->
<g id="edge54" class="edge">
<title>[root] root-&gt;[root] var.tags</title>
<path fill="none" stroke="#000000" d="M1100.7037,-506.3771C1117.0702,-496.6383 1138.4221,-483.9331 1156.7121,-473.0497"/>
<polygon fill="#000000" stroke="#000000" points="1158.6057,-475.9958 1165.4097,-467.8744 1155.0262,-469.9802 1158.6057,-475.9958"/>
</g>
<!-- [root] root&#45;&gt;[root] provider[&quot;registry.terraform.io/hashicorp/aws&quot;] (close) -->
<g id="edge52" class="edge">
<title>[root] root-&gt;[root] provider["registry.terraform.io/hashicorp/aws"] (close)</title>
<path fill="none" stroke="#000000" d="M1030.4777,-512.6611C978.8456,-501.695 891.8589,-483.2199 825.6798,-469.1642"/>
<polygon fill="#000000" stroke="#000000" points="826.1691,-465.6901 815.6601,-467.0361 824.7147,-472.5374 826.1691,-465.6901"/>
</g>
</g>
</svg>